<?xml version="1.0" encoding="utf-8"?>
<!-- Generator: Adobe Illustrator 21.0.2, SVG Export Plug-In . SVG Version: 6.00 Build 0)  -->
<svg version="1.1" id="圖層_1" zoomAndPan="disable"
	 xmlns="http://www.w3.org/2000/svg" xmlns:xlink="http://www.w3.org/1999/xlink" x="0px" y="0px" viewBox="0 0 36 36"
	 style="enable-background:new 0 0 36 36;" xml:space="preserve">
<style type="text/css">
	.st0{fill:none;}
</style>
<g>
	<g>
		<path d="M3.4,14.5c-0.2,0.2-0.6,0.2-0.8,0c-0.3-0.3-0.2-0.6,0-0.8c0.3-0.3,0.6-0.2,0.7,0C3.7,14,3.7,14.3,3.4,14.5z"/>
		<path d="M5.6,16.6c-0.2,0.2-0.6,0.2-0.8,0c-0.3-0.3-0.2-0.6,0-0.8c0.3-0.3,0.6-0.2,0.7,0C5.8,16.1,5.8,16.4,5.6,16.6z"/>
		<path d="M7.7,18.7c-0.2,0.2-0.6,0.2-0.8,0c-0.3-0.3-0.2-0.6,0-0.8c0.3-0.3,0.6-0.2,0.7,0C7.9,18.2,7.9,18.5,7.7,18.7z"/>
		<path d="M9.9,20.9c-0.2,0.2-0.6,0.2-0.8,0c-0.3-0.3-0.2-0.6,0-0.8c0.3-0.3,0.6-0.2,0.7,0C10.1,20.4,10.1,20.7,9.9,20.9z"/>
		<path d="M12,23c-0.2,0.2-0.6,0.2-0.8,0c-0.3-0.3-0.2-0.6,0-0.8c0.3-0.3,0.6-0.2,0.7,0C12.2,22.5,12.2,22.8,12,23z"/>
		<path d="M14.1,25.2c-0.2,0.2-0.6,0.2-0.8,0c-0.3-0.3-0.2-0.6,0-0.8c0.3-0.3,0.6-0.2,0.7,0C14.4,24.7,14.3,25,14.1,25.2z"/>
		<path d="M16.3,27.3c-0.2,0.2-0.6,0.2-0.8,0c-0.3-0.3-0.2-0.6,0-0.8c0.3-0.3,0.6-0.2,0.7,0C16.5,26.8,16.5,27.1,16.3,27.3z"/>
		<path d="M18.4,29.4c-0.2,0.2-0.6,0.2-0.8,0c-0.3-0.3-0.2-0.6,0-0.8c0.3-0.3,0.6-0.2,0.7,0C18.6,28.9,18.6,29.2,18.4,29.4z"/>
	</g>
	<g>
		<path d="M18.4,28.7c0.2,0.2,0.2,0.6,0,0.8c-0.3,0.3-0.6,0.2-0.8,0c-0.3-0.3-0.2-0.6,0-0.7C17.9,28.4,18.2,28.5,18.4,28.7z"/>
		<path d="M20.5,26.5c0.2,0.2,0.2,0.6,0,0.8c-0.3,0.3-0.6,0.2-0.8,0c-0.3-0.3-0.2-0.6,0-0.7C20,26.3,20.3,26.3,20.5,26.5z"/>
		<path d="M22.7,24.4c0.2,0.2,0.2,0.6,0,0.8c-0.3,0.3-0.6,0.2-0.8,0c-0.3-0.3-0.2-0.6,0-0.7C22.2,24.2,22.5,24.2,22.7,24.4z"/>
		<path d="M24.8,22.3c0.2,0.2,0.2,0.6,0,0.8c-0.3,0.3-0.6,0.2-0.8,0c-0.3-0.3-0.2-0.6,0-0.7C24.3,22,24.6,22,24.8,22.3z"/>
		<path d="M27,20.1c0.2,0.2,0.2,0.6,0,0.8c-0.3,0.3-0.6,0.2-0.8,0c-0.3-0.3-0.2-0.6,0-0.7C26.4,19.9,26.7,19.9,27,20.1z"/>
		<path d="M29.1,18c0.2,0.2,0.2,0.6,0,0.8c-0.3,0.3-0.6,0.2-0.8,0c-0.3-0.3-0.2-0.6,0-0.7C28.6,17.8,28.9,17.8,29.1,18z"/>
		<path d="M31.2,15.8c0.2,0.2,0.2,0.6,0,0.8c-0.3,0.3-0.6,0.2-0.8,0c-0.3-0.3-0.2-0.6,0-0.7C30.7,15.6,31,15.6,31.2,15.8z"/>
		<path d="M33.4,13.7c0.2,0.2,0.2,0.6,0,0.8c-0.3,0.3-0.6,0.2-0.8,0c-0.3-0.3-0.2-0.6,0-0.7C32.9,13.5,33.2,13.5,33.4,13.7z"/>
	</g>
</g>
<line class="st0" x1="2.7" y1="13.7" x2="17.7" y2="28.7"/>
</svg>
